<svg viewBox="0 0 64 64" fill="none" xmlns="http://www.w3.org/2000/svg" width="256" height="256">
  <defs>
    <linearGradient id="cmG" x1="6" y1="6" x2="58" y2="58" gradientUnits="userSpaceOnUse">
      <stop stop-color="#a78bfa"></stop><stop offset=".5" stop-color="#6aa8f0"></stop><stop offset="1" stop-color="#22d3ee"></stop>
    </linearGradient>
    <radialGradient id="cmCore" cx="50%" cy="50%" r="50%">
      <stop offset="0" stop-color="#d8f6ff"></stop><stop offset="1" stop-color="#22d3ee"></stop>
    </radialGradient>
  </defs>
  <g stroke="url(#cmG)" stroke-linecap="round">
    <path d="M7 26 a12 12 0 0 0 0 12" stroke-width="1.6" opacity=".55"></path>
    <path d="M3.5 22 a17 17 0 0 0 0 20" stroke-width="1.4" opacity=".32"></path>
    <path d="M57 26 a12 12 0 0 1 0 12" stroke-width="1.6" opacity=".55"></path>
    <path d="M60.5 22 a17 17 0 0 1 0 20" stroke-width="1.4" opacity=".32"></path>
  </g>
  <g stroke="url(#cmG)" fill="none">
    <circle cx="32" cy="33" r="15.5" stroke-width="2" opacity=".35"></circle>
    <circle cx="32" cy="33" r="11" stroke-width="2" opacity=".6"></circle>
    <circle cx="32" cy="33" r="6.5" stroke-width="2" opacity=".85"></circle>
  </g>
  <circle cx="32" cy="33" r="3" fill="url(#cmCore)"></circle>
  <path d="M13 33 a19 19 0 0 1 38 0" stroke="url(#cmG)" stroke-width="3" stroke-linecap="round"></path>
  <rect x="8.5" y="30" width="8" height="16" rx="4" fill="url(#cmG)"></rect>
  <rect x="47.5" y="30" width="8" height="16" rx="4" fill="url(#cmG)"></rect>
</svg>